<?xml version="1.0" encoding="UTF-8"?>
<svg width="1200" height="720" viewBox="0 0 1200 720" xmlns="http://www.w3.org/2000/svg" role="img" aria-label="Desktop UI screenshot placeholder">
  <defs>
    <linearGradient id="g" x1="0" y1="0" x2="1" y2="1">
      <stop offset="0" stop-color="#2F3CF6" stop-opacity="0.18"/>
      <stop offset="0.55" stop-color="#FFB020" stop-opacity="0.14"/>
      <stop offset="1" stop-color="#0BA4A6" stop-opacity="0.14"/>
    </linearGradient>
  </defs>
  <rect x="40" y="40" width="1120" height="640" rx="32" fill="#FFFFFF" stroke="rgba(12,15,20,0.14)" stroke-width="2"/>
  <rect x="40" y="40" width="1120" height="78" rx="32" fill="url(#g)" />
  <g fill="rgba(12,15,20,0.62)">
    <circle cx="88" cy="79" r="10" fill="rgba(12,15,20,0.18)"/>
    <circle cx="120" cy="79" r="10" fill="rgba(12,15,20,0.12)"/>
    <circle cx="152" cy="79" r="10" fill="rgba(12,15,20,0.10)"/>
  </g>
  <rect x="78" y="155" width="320" height="490" rx="24" fill="rgba(12,15,20,0.03)" stroke="rgba(12,15,20,0.08)"/>
  <rect x="426" y="155" width="694" height="250" rx="24" fill="rgba(12,15,20,0.03)" stroke="rgba(12,15,20,0.08)"/>
  <rect x="426" y="425" width="694" height="220" rx="24" fill="rgba(12,15,20,0.03)" stroke="rgba(12,15,20,0.08)"/>
  <g fill="rgba(12,15,20,0.38)">
    <rect x="106" y="190" width="220" height="16" rx="8"/>
    <rect x="106" y="225" width="260" height="12" rx="6" opacity="0.7"/>
    <rect x="106" y="260" width="240" height="12" rx="6" opacity="0.7"/>
    <rect x="106" y="295" width="180" height="12" rx="6" opacity="0.7"/>
  </g>
  <g fill="rgba(12,15,20,0.38)">
    <rect x="454" y="190" width="300" height="16" rx="8"/>
    <rect x="454" y="225" width="420" height="12" rx="6" opacity="0.7"/>
    <rect x="454" y="260" width="520" height="12" rx="6" opacity="0.7"/>
  </g>
  <g fill="rgba(47,60,246,0.18)">
    <circle cx="520" cy="510" r="12"/><circle cx="585" cy="540" r="10"/><circle cx="650" cy="520" r="11"/>
    <circle cx="720" cy="555" r="9"/><circle cx="790" cy="520" r="11"/><circle cx="860" cy="555" r="10"/>
    <circle cx="930" cy="520" r="9"/>
  </g>
  <path d="M520 510 L585 540 L650 520 L720 555 L790 520 L860 555 L930 520" stroke="rgba(47,60,246,0.55)" stroke-width="4" fill="none" stroke-linecap="round" stroke-linejoin="round"/>
  <text x="600" y="360" text-anchor="middle" font-family="ui-sans-serif, system-ui, -apple-system, Segoe UI, Roboto, Helvetica, Arial" font-size="18" fill="rgba(12,15,20,0.55)">
    Desktop UI placeholder — replace with a real Block screenshot
  </text>
</svg>
