<?xml version="1.0" encoding="UTF-8"?>
<svg width="720" height="1200" viewBox="0 0 720 1200" xmlns="http://www.w3.org/2000/svg" role="img" aria-label="Mobile UI screenshot placeholder">
  <defs>
    <linearGradient id="g2" x1="0" y1="0" x2="0" y2="1">
      <stop offset="0" stop-color="#2F3CF6" stop-opacity="0.18"/>
      <stop offset="0.6" stop-color="#0BA4A6" stop-opacity="0.14"/>
      <stop offset="1" stop-color="#FFB020" stop-opacity="0.12"/>
    </linearGradient>
  </defs>
  <rect x="140" y="60" width="440" height="1080" rx="56" fill="#FFFFFF" stroke="rgba(12,15,20,0.14)" stroke-width="2"/>
  <rect x="170" y="120" width="380" height="160" rx="28" fill="url(#g2)" />
  <rect x="170" y="310" width="380" height="240" rx="28" fill="rgba(12,15,20,0.03)" stroke="rgba(12,15,20,0.08)"/>
  <rect x="170" y="570" width="380" height="220" rx="28" fill="rgba(12,15,20,0.03)" stroke="rgba(12,15,20,0.08)"/>
  <rect x="170" y="810" width="380" height="260" rx="28" fill="rgba(12,15,20,0.03)" stroke="rgba(12,15,20,0.08)"/>
  <g fill="rgba(12,15,20,0.40)">
    <rect x="200" y="355" width="210" height="14" rx="7"/>
    <rect x="200" y="385" width="260" height="12" rx="6" opacity="0.7"/>
    <rect x="200" y="610" width="240" height="14" rx="7"/>
    <rect x="200" y="640" width="280" height="12" rx="6" opacity="0.7"/>
    <rect x="200" y="850" width="200" height="14" rx="7"/>
    <rect x="200" y="880" width="260" height="12" rx="6" opacity="0.7"/>
  </g>
  <text x="360" y="260" text-anchor="middle" font-family="ui-sans-serif, system-ui, -apple-system, Segoe UI, Roboto, Helvetica, Arial" font-size="16" fill="rgba(12,15,20,0.55)">
    Mobile UI placeholder
  </text>
</svg>
